# xmcd
#
# Track frame offsets:
#	150
#	19203
#	32965
#	47959
#	63263
#	71890
#	89289
#	109172
#	122082
#	135209
#	149809
#	167939
#	184442
#	195912
#	217225
#	232882
#	245563
#	256072
#	277929
#	295552
#	309652
#
# Disc length: 4196 seconds
#
# Revision: 1
# Processed by: cddbd v1.5.2PL0 Copyright (c) Steve Scherf et al.
# Submitted via: audiograbber 1.83.01
#
DISCID=41106215
DTITLE=The Andersons - Country Cocktail
DYEAR=1900
DGENRE=Country
TTITLE0=Margaritaville
TTITLE1=Walk On
TTITLE2=There Goes My Heart
TTITLE3=Closer
TTITLE4=All Shook Up
TTITLE5=Whose Bed Have
TTITLE6=Remember When
TTITLE7=Mi Vida Loca
TTITLE8=Don't Rock The Jukebox
TTITLE9=Rosegarden
TTITLE10=King Of The Road
TTITLE11=The Bug
TTITLE12=Sold
TTITLE13=Travelin' Soldier
TTITLE14=Two Pina Coladas
TTITLE15=Buckaroo
TTITLE16=Whisky In The Jar
TTITLE17=Forever And Always
TTITLE18=Stumblin' In
TTITLE19=Guitars, Cadillacs
TTITLE20=All Shook Up (fast)
EXTD=
EXTT0=
EXTT1=
EXTT2=
EXTT3=
EXTT4=
EXTT5=
EXTT6=
EXTT7=
EXTT8=
EXTT9=
EXTT10=
EXTT11=
EXTT12=
EXTT13=
EXTT14=
EXTT15=
EXTT16=
EXTT17=
EXTT18=
EXTT19=
EXTT20=
PLAYORDER=
